<svg width="20" height="20" viewBox="0 0 20 20" fill="none" xmlns="http://www.w3.org/2000/svg">
<g clip-path="url(#clip0)">
<path d="M0.484741 5.78208L9.58396 9.90981C9.84958 10.0305 10.15 10.0305 10.4156 9.90981L19.5148 5.78208C20.1613 5.48872 20.1613 4.51177 19.5148 4.21841L10.416 0.0902818C10.2855 0.0306298 10.1437 -0.000244141 10.0002 -0.000244141C9.85668 -0.000244141 9.71486 0.0306298 9.58435 0.0902818L0.484741 4.21802C-0.161743 4.51138 -0.161743 5.48872 0.484741 5.78208ZM19.5152 9.23052L17.2461 8.202L10.932 11.0641C10.6367 11.1981 10.323 11.2661 9.99997 11.2661C9.67693 11.2661 9.36365 11.1981 9.06794 11.0641L2.75427 8.202L0.484741 9.23052C-0.161743 9.52349 -0.161743 10.5 0.484741 10.793L9.58396 14.9176C9.84958 15.0379 10.15 15.0379 10.4156 14.9176L19.5152 10.793C20.1617 10.5 20.1617 9.52349 19.5152 9.23052ZM19.5152 14.2227L17.2547 13.1981L10.932 16.0641C10.6367 16.1981 10.323 16.2661 9.99997 16.2661C9.67693 16.2661 9.36365 16.1981 9.06794 16.0641L2.74568 13.1981L0.484741 14.2227C-0.161743 14.5157 -0.161743 15.4922 0.484741 15.7852L9.58396 19.9098C9.84958 20.0301 10.15 20.0301 10.4156 19.9098L19.5152 15.7852C20.1617 15.4922 20.1617 14.5157 19.5152 14.2227Z" fill="white"/>
</g>
<defs>
<clipPath id="clip0">
<rect width="20" height="20" fill="white"/>
</clipPath>
</defs>
</svg>
