<svg width="20" height="18" viewBox="0 0 20 18" fill="none" xmlns="http://www.w3.org/2000/svg">
<g clip-path="url(#clip0)">
<path d="M9.73503 5.14786L3.3333 10.4204V16.1111C3.3333 16.2584 3.39183 16.3997 3.49602 16.5039C3.6002 16.6081 3.74151 16.6666 3.88885 16.6666L7.77982 16.6565C7.92668 16.6558 8.06728 16.597 8.17086 16.4928C8.27445 16.3887 8.3326 16.2479 8.3326 16.101V12.7777C8.3326 12.6304 8.39113 12.4891 8.49531 12.3849C8.5995 12.2807 8.74081 12.2222 8.88815 12.2222H11.1104C11.2577 12.2222 11.399 12.2807 11.5032 12.3849C11.6074 12.4891 11.6659 12.6304 11.6659 12.7777V16.0986C11.6657 16.1717 11.6799 16.2441 11.7077 16.3117C11.7355 16.3793 11.7764 16.4407 11.828 16.4925C11.8796 16.5443 11.941 16.5854 12.0085 16.6134C12.076 16.6414 12.1484 16.6559 12.2215 16.6558L16.1111 16.6666C16.2584 16.6666 16.3997 16.6081 16.5039 16.5039C16.6081 16.3997 16.6666 16.2584 16.6666 16.1111V10.4166L10.2663 5.14786C10.191 5.08721 10.0973 5.05414 10.0006 5.05414C9.904 5.05414 9.81027 5.08721 9.73503 5.14786ZM19.8472 8.73154L16.9444 6.33883V1.52946C16.9444 1.41895 16.9005 1.31297 16.8224 1.23483C16.7442 1.15669 16.6382 1.11279 16.5277 1.11279H14.5833C14.4728 1.11279 14.3668 1.15669 14.2887 1.23483C14.2105 1.31297 14.1666 1.41895 14.1666 1.52946V4.05064L11.0579 1.493C10.7596 1.24751 10.3853 1.11328 9.99891 1.11328C9.61256 1.11328 9.23822 1.24751 8.93989 1.493L0.150665 8.73154C0.108474 8.76642 0.0735665 8.80926 0.0479388 8.85763C0.022311 8.906 0.00646483 8.95894 0.0013056 9.01344C-0.00385364 9.06793 0.00177521 9.12291 0.0178705 9.17523C0.0339658 9.22754 0.0602122 9.27618 0.0951098 9.31835L0.980525 10.3947C1.01533 10.4371 1.05814 10.4721 1.1065 10.4978C1.15486 10.5236 1.20782 10.5396 1.26236 10.5448C1.3169 10.5501 1.37194 10.5445 1.42433 10.5285C1.47672 10.5124 1.52543 10.4862 1.56768 10.4513L9.73503 3.72425C9.81027 3.6636 9.904 3.63053 10.0006 3.63053C10.0973 3.63053 10.191 3.6636 10.2663 3.72425L18.434 10.4513C18.4761 10.4862 18.5248 10.5125 18.5771 10.5286C18.6294 10.5447 18.6844 10.5503 18.7389 10.5451C18.7934 10.54 18.8463 10.5241 18.8947 10.4985C18.9431 10.4729 18.9859 10.438 19.0208 10.3958L19.9062 9.31939C19.9411 9.27698 19.9672 9.22809 19.9831 9.17554C19.999 9.123 20.0044 9.06782 19.9989 9.0132C19.9934 8.95857 19.9772 8.90556 19.9511 8.85723C19.9251 8.80889 19.8898 8.76618 19.8472 8.73154Z" fill="white"/>
</g>
<defs>
<clipPath id="clip0">
<rect width="20" height="17.7778" fill="white"/>
</clipPath>
</defs>
</svg>
