<svg width="20" height="23" viewBox="0 0 20 23" fill="none" xmlns="http://www.w3.org/2000/svg">
<g clip-path="url(#clip0)">
<path d="M9.99933 22.8571C11.5761 22.8571 12.8551 21.5781 12.8551 20H7.14353C7.14353 21.5781 8.42254 22.8571 9.99933 22.8571ZM19.6149 16.1737C18.7524 15.2469 17.1386 13.8527 17.1386 9.28571C17.1386 5.81696 14.7065 3.04018 11.427 2.35893V1.42857C11.427 0.639732 10.7877 0 9.99933 0C9.21094 0 8.57165 0.639732 8.57165 1.42857V2.35893C5.29219 3.04018 2.86005 5.81696 2.86005 9.28571C2.86005 13.8527 1.24621 15.2469 0.383714 16.1737C0.115857 16.4616 -0.00289269 16.8058 -0.000660548 17.1429C0.00425016 17.875 0.578803 18.5714 1.43237 18.5714H18.5663C19.4199 18.5714 19.9949 17.875 19.9993 17.1429C20.0016 16.8058 19.8828 16.4612 19.6149 16.1737Z" fill="#A9A9A9"/>
</g>
<defs>
<clipPath id="clip0">
<rect width="20" height="22.8571" fill="white"/>
</clipPath>
</defs>
</svg>
