<svg width="20" height="20" viewBox="0 0 20 20" fill="none" xmlns="http://www.w3.org/2000/svg">
<path d="M19.039 12.3321L17.375 11.3711C17.543 10.4649 17.543 9.53519 17.375 8.62894L19.039 7.668C19.2305 7.55863 19.3164 7.33207 19.2539 7.12113C18.8203 5.7305 18.082 4.47269 17.1172 3.42582C16.9687 3.26566 16.7266 3.2266 16.5391 3.33597L14.875 4.29691C14.1758 3.69535 13.3711 3.23051 12.5 2.92582V1.00785C12.5 0.789099 12.3476 0.597693 12.1328 0.550818C10.6992 0.230505 9.23046 0.24613 7.86718 0.550818C7.65234 0.597693 7.49999 0.789099 7.49999 1.00785V2.92972C6.63281 3.23832 5.82812 3.70316 5.12499 4.30082L3.46484 3.33988C3.27343 3.23051 3.03515 3.26566 2.88671 3.42972C1.92187 4.47269 1.18359 5.7305 0.749995 7.12504C0.683589 7.33597 0.773432 7.56254 0.964839 7.67191L2.6289 8.63285C2.46093 9.5391 2.46093 10.4688 2.6289 11.375L0.964839 12.336C0.773432 12.4453 0.687495 12.6719 0.749995 12.8828C1.18359 14.2735 1.92187 15.5313 2.88671 16.5782C3.03515 16.7383 3.27734 16.7774 3.46484 16.668L5.1289 15.7071C5.82812 16.3086 6.63281 16.7735 7.5039 17.0782V19C7.5039 19.2188 7.65624 19.4102 7.87109 19.4571C9.30468 19.7774 10.7734 19.7618 12.1367 19.4571C12.3516 19.4102 12.5039 19.2188 12.5039 19V17.0782C13.3711 16.7696 14.1758 16.3047 14.8789 15.7071L16.543 16.668C16.7344 16.7774 16.9726 16.7422 17.1211 16.5782C18.0859 15.5352 18.8242 14.2774 19.2578 12.8828C19.3164 12.668 19.2305 12.4414 19.039 12.3321ZM9.99999 13.125C8.27734 13.125 6.87499 11.7227 6.87499 10C6.87499 8.27738 8.27734 6.87504 9.99999 6.87504C11.7226 6.87504 13.125 8.27738 13.125 10C13.125 11.7227 11.7226 13.125 9.99999 13.125Z" fill="white"/>
</svg>
