<svg width="20" height="20" viewBox="0 0 20 20" fill="none" xmlns="http://www.w3.org/2000/svg">
<path d="M19.039 12.332L17.375 11.371C17.543 10.4648 17.543 9.5351 17.375 8.62885L19.039 7.66791C19.2305 7.55854 19.3164 7.33198 19.2539 7.12104C18.8203 5.73041 18.082 4.4726 17.1172 3.42573C16.9687 3.26557 16.7266 3.22651 16.5391 3.33588L14.875 4.29682C14.1758 3.69526 13.3711 3.23041 12.5 2.92573V1.00776C12.5 0.789007 12.3476 0.597601 12.1328 0.550726C10.6992 0.230414 9.23046 0.246039 7.86718 0.550726C7.65234 0.597601 7.49999 0.789007 7.49999 1.00776V2.92963C6.63281 3.23823 5.82812 3.70307 5.12499 4.30073L3.46484 3.33979C3.27343 3.23041 3.03515 3.26557 2.88671 3.42963C1.92187 4.4726 1.18359 5.73041 0.749995 7.12494C0.683589 7.33588 0.773432 7.56244 0.964839 7.67182L2.6289 8.63276C2.46093 9.53901 2.46093 10.4687 2.6289 11.3749L0.964839 12.3359C0.773432 12.4453 0.687495 12.6718 0.749995 12.8828C1.18359 14.2734 1.92187 15.5312 2.88671 16.5781C3.03515 16.7382 3.27734 16.7773 3.46484 16.6679L5.1289 15.707C5.82812 16.3085 6.63281 16.7734 7.5039 17.0781V18.9999C7.5039 19.2187 7.65624 19.4101 7.87109 19.457C9.30468 19.7773 10.7734 19.7617 12.1367 19.457C12.3516 19.4101 12.5039 19.2187 12.5039 18.9999V17.0781C13.3711 16.7695 14.1758 16.3046 14.8789 15.707L16.543 16.6679C16.7344 16.7773 16.9726 16.7421 17.1211 16.5781C18.0859 15.5351 18.8242 14.2773 19.2578 12.8828C19.3164 12.6679 19.2305 12.4414 19.039 12.332ZM9.99999 13.1249C8.27734 13.1249 6.87499 11.7226 6.87499 9.99994C6.87499 8.27729 8.27734 6.87494 9.99999 6.87494C11.7226 6.87494 13.125 8.27729 13.125 9.99994C13.125 11.7226 11.7226 13.1249 9.99999 13.1249Z" fill="#A9A9A9"/>
</svg>
